<svg width="41" height="36" viewBox="0 0 41 36" fill="none" xmlns="http://www.w3.org/2000/svg">
<path d="M3.34677 19.9089C3.20499 19.8472 3.1341 19.7455 3.1341 19.6037C3.1341 19.5359 3.1526 19.4774 3.18958 19.4281C3.22657 19.3726 3.27896 19.3294 3.34677 19.2986L8.22884 17.024C8.32131 17.172 8.36754 17.3168 8.36754 17.4586C8.36754 17.5695 8.3398 17.6682 8.28432 17.7545C8.22884 17.8408 8.14563 17.9055 8.03467 17.9486L4.33613 19.6037L8.02542 21.2588C8.13022 21.302 8.21035 21.3698 8.26583 21.4623C8.32131 21.5547 8.34905 21.6595 8.34905 21.7766C8.34905 21.9307 8.30898 22.0694 8.22884 22.1927L3.34677 19.9089ZM26.8582 22.1927C26.7781 22.0694 26.738 21.9307 26.738 21.7766C26.738 21.6595 26.7658 21.5547 26.8212 21.4623C26.8767 21.3698 26.9568 21.302 27.0616 21.2588L30.7509 19.6037L27.0524 17.9486C26.9414 17.9055 26.8582 17.8408 26.8027 17.7545C26.7473 17.6682 26.7195 17.5695 26.7195 17.4586C26.7195 17.3168 26.7658 17.172 26.8582 17.024L31.7403 19.2986C31.8081 19.3294 31.8605 19.3726 31.8975 19.4281C31.9345 19.4774 31.953 19.5359 31.953 19.6037C31.953 19.7455 31.8821 19.8472 31.7403 19.9089L26.8582 22.1927Z" fill="#BBBBBB"/>
<path d="M11.817 16.2381C11.817 16.121 11.8571 16.0254 11.9372 15.9514C12.0235 15.8713 12.1314 15.8312 12.2608 15.8312H14.9608C15.3676 15.8312 15.7282 15.9175 16.0426 16.0901C16.357 16.2566 16.6005 16.4939 16.7731 16.8021C16.9456 17.1041 17.0319 17.4524 17.0319 17.8469C17.0319 18.2538 16.9456 18.6113 16.7731 18.9195C16.6066 19.2277 16.3662 19.4651 16.0518 19.6315C15.7375 19.7979 15.3738 19.8811 14.9608 19.8811H12.6862V21.6657C12.6862 21.8999 12.6122 22.0787 12.4643 22.202C12.3163 22.3253 12.1006 22.3869 11.817 22.3869V16.2381ZM14.9608 19.1137C15.3306 19.1137 15.6234 19.0027 15.8392 18.7808C16.0549 18.5527 16.1628 18.2414 16.1628 17.8469C16.1628 17.4648 16.0518 17.1627 15.8299 16.9408C15.6142 16.7127 15.3245 16.5987 14.9608 16.5987H12.6862V19.1137H14.9608ZM18.5364 22.3037C18.4131 22.3037 18.3084 22.2667 18.2221 22.1927C18.1358 22.1126 18.0926 22.014 18.0926 21.8968V16.2381C18.0926 16.121 18.1327 16.0254 18.2128 15.9514C18.2991 15.8713 18.407 15.8312 18.5364 15.8312H20.7001C21.224 15.8312 21.6864 15.9299 22.087 16.1271C22.4877 16.3244 22.799 16.6018 23.0209 16.9593C23.249 17.3107 23.363 17.7144 23.363 18.1706V19.9459C23.363 20.402 23.249 20.8089 23.0209 21.1664C22.799 21.5239 22.4846 21.8044 22.0778 22.0078C21.6771 22.2051 21.2179 22.3037 20.7001 22.3037H18.5364ZM20.6076 21.5455C21.1994 21.5455 21.6617 21.4068 21.9946 21.1294C22.3274 20.8458 22.4939 20.4544 22.4939 19.9551V18.1613C22.4939 17.6682 22.3274 17.2829 21.9946 17.0055C21.6617 16.7281 21.1994 16.5894 20.6076 16.5894H18.9618V21.5455H20.6076Z" fill="#1FE857"/>
<g filter="url(#filter0_dd_29_364)">
<path d="M18.8061 3.50818L30.975 6.75158L33.7336 18.9041L30.975 28.0184L18.8061 32.9041L5.16886 28.0184L2.14331 18.9041L5.16886 6.75158L18.8061 3.50818Z" stroke="black" stroke-width="0.848388" shape-rendering="crispEdges"/>
</g>
<defs>
<filter id="filter0_dd_29_364" x="0.489921" y="0.88917" width="34.8942" height="34.6501" filterUnits="userSpaceOnUse" color-interpolation-filters="sRGB">
<feFlood flood-opacity="0" result="BackgroundImageFix"/>
<feColorMatrix in="SourceAlpha" type="matrix" values="0 0 0 0 0 0 0 0 0 0 0 0 0 0 0 0 0 0 127 0" result="hardAlpha"/>
<feOffset dy="0.969586"/>
<feGaussianBlur stdDeviation="0.605992"/>
<feComposite in2="hardAlpha" operator="out"/>
<feColorMatrix type="matrix" values="0 0 0 0 0.121111 0 0 0 0 0.908333 0 0 0 0 0.341533 0 0 0 1 0"/>
<feBlend mode="normal" in2="BackgroundImageFix" result="effect1_dropShadow_29_364"/>
<feColorMatrix in="SourceAlpha" type="matrix" values="0 0 0 0 0 0 0 0 0 0 0 0 0 0 0 0 0 0 127 0" result="hardAlpha"/>
<feOffset dy="-0.969586"/>
<feGaussianBlur stdDeviation="0.605992"/>
<feComposite in2="hardAlpha" operator="out"/>
<feColorMatrix type="matrix" values="0 0 0 0 0.121111 0 0 0 0 0.908333 0 0 0 0 0.341533 0 0 0 1 0"/>
<feBlend mode="normal" in2="effect1_dropShadow_29_364" result="effect2_dropShadow_29_364"/>
<feBlend mode="normal" in="SourceGraphic" in2="effect2_dropShadow_29_364" result="shape"/>
</filter>
</defs>
</svg>
