<svg width="200" height="171" viewBox="0 0 200 171" fill="none" xmlns="http://www.w3.org/2000/svg">
<g filter="url(#filter0_d_29_351)">
<path d="M18.2117 91.2623C17.5154 90.9595 17.1672 90.46 17.1672 89.7637C17.1672 89.4307 17.258 89.1431 17.4397 88.9009C17.6213 88.6284 17.8786 88.4165 18.2117 88.2651L42.1889 77.0939C42.643 77.8205 42.87 78.5319 42.87 79.2282C42.87 79.7732 42.7338 80.2576 42.4613 80.6814C42.1889 81.1053 41.7802 81.4231 41.2352 81.6351L23.0707 89.7637L41.1898 97.8923C41.7045 98.1042 42.098 98.4373 42.3705 98.8914C42.643 99.3455 42.7792 99.8601 42.7792 100.435C42.7792 101.192 42.5824 101.873 42.1889 102.479L18.2117 91.2623ZM133.683 102.479C133.289 101.873 133.092 101.192 133.092 100.435C133.092 99.8601 133.229 99.3455 133.501 98.8914C133.774 98.4373 134.167 98.1042 134.682 97.8923L152.801 89.7637L134.636 81.6351C134.092 81.4231 133.683 81.1053 133.41 80.6814C133.138 80.2576 133.002 79.7732 133.002 79.2282C133.002 78.5319 133.229 77.8205 133.683 77.0939L157.66 88.2651C157.993 88.4165 158.25 88.6284 158.432 88.9009C158.614 89.1431 158.704 89.4307 158.704 89.7637C158.704 90.46 158.356 90.9595 157.66 91.2623L133.683 102.479Z" fill="#BBBBBB"/>
<path d="M59.8113 73.234C59.8113 72.6587 60.0081 72.1895 60.4017 71.8262C60.8255 71.4326 61.3553 71.2358 61.9911 71.2358H75.2512C77.2493 71.2358 79.0203 71.6597 80.5643 72.5074C82.1083 73.3248 83.3041 74.4903 84.1518 76.004C84.9995 77.4875 85.4233 79.198 85.4233 81.1355C85.4233 83.1336 84.9995 84.8895 84.1518 86.4032C83.3344 87.917 82.1537 89.0825 80.6097 89.8999C79.0657 90.7173 77.2796 91.126 75.2512 91.126H64.08V99.8904C64.08 101.041 63.7167 101.919 62.9901 102.524C62.2635 103.13 61.2039 103.433 59.8113 103.433V73.234ZM75.2512 87.3569C77.0676 87.3569 78.5057 86.8119 79.5653 85.7221C80.6249 84.6019 81.1547 83.0731 81.1547 81.1355C81.1547 79.2585 80.6097 77.7751 79.5198 76.6852C78.4602 75.5651 77.0374 75.005 75.2512 75.005H64.08V87.3569H75.2512ZM92.8122 103.024C92.2068 103.024 91.6921 102.842 91.2683 102.479C90.8444 102.085 90.6325 101.601 90.6325 101.026V73.234C90.6325 72.6587 90.8293 72.1895 91.2228 71.8262C91.6467 71.4326 92.1765 71.2358 92.8122 71.2358H103.439C106.012 71.2358 108.282 71.7202 110.25 72.689C112.218 73.6578 113.747 75.0201 114.837 76.776C115.957 78.5017 116.517 80.4846 116.517 82.7249V91.4439C116.517 93.6842 115.957 95.6823 114.837 97.4382C113.747 99.1941 112.203 100.572 110.205 101.571C108.237 102.539 105.982 103.024 103.439 103.024H92.8122ZM102.984 99.3001C105.891 99.3001 108.161 98.6189 109.796 97.2566C111.431 95.8639 112.248 93.9415 112.248 91.4893V82.6795C112.248 80.2576 111.431 78.3654 109.796 77.0031C108.161 75.6408 105.891 74.9596 102.984 74.9596H94.9012V99.3001H102.984Z" fill="black"/>
<g filter="url(#filter1_dd_29_351)">
<path d="M92.3618 13.3184L152.127 29.2476L165.675 88.9318L152.127 133.695L92.3618 157.69L25.3856 133.695L10.5263 88.9318L25.3856 29.2476L92.3618 13.3184Z" stroke="black" stroke-width="4.16667" shape-rendering="crispEdges"/>
</g>
</g>
<defs>
<filter id="filter0_d_29_351" x="-4" y="1" width="208" height="171.095" filterUnits="userSpaceOnUse" color-interpolation-filters="sRGB">
<feFlood flood-opacity="0" result="BackgroundImageFix"/>
<feColorMatrix in="SourceAlpha" type="matrix" values="0 0 0 0 0 0 0 0 0 0 0 0 0 0 0 0 0 0 127 0" result="hardAlpha"/>
<feOffset dy="4"/>
<feGaussianBlur stdDeviation="2"/>
<feComposite in2="hardAlpha" operator="out"/>
<feColorMatrix type="matrix" values="0 0 0 0 0 0 0 0 0 0 0 0 0 0 0 0 0 0 0.25 0"/>
<feBlend mode="normal" in2="BackgroundImageFix" result="effect1_dropShadow_29_351"/>
<feBlend mode="normal" in="SourceGraphic" in2="effect1_dropShadow_29_351" result="shape"/>
</filter>
<filter id="filter1_dd_29_351" x="2.40635" y="0.458109" width="171.375" height="170.174" filterUnits="userSpaceOnUse" color-interpolation-filters="sRGB">
<feFlood flood-opacity="0" result="BackgroundImageFix"/>
<feColorMatrix in="SourceAlpha" type="matrix" values="0 0 0 0 0 0 0 0 0 0 0 0 0 0 0 0 0 0 127 0" result="hardAlpha"/>
<feOffset dy="4.7619"/>
<feGaussianBlur stdDeviation="2.97619"/>
<feComposite in2="hardAlpha" operator="out"/>
<feColorMatrix type="matrix" values="0 0 0 0 0.0941176 0 0 0 0 0.760784 0 0 0 0 0.160784 0 0 0 1 0"/>
<feBlend mode="normal" in2="BackgroundImageFix" result="effect1_dropShadow_29_351"/>
<feColorMatrix in="SourceAlpha" type="matrix" values="0 0 0 0 0 0 0 0 0 0 0 0 0 0 0 0 0 0 127 0" result="hardAlpha"/>
<feOffset dy="-4.7619"/>
<feGaussianBlur stdDeviation="2.975"/>
<feComposite in2="hardAlpha" operator="out"/>
<feColorMatrix type="matrix" values="0 0 0 0 0.0941176 0 0 0 0 0.760784 0 0 0 0 0.160784 0 0 0 1 0"/>
<feBlend mode="normal" in2="effect1_dropShadow_29_351" result="effect2_dropShadow_29_351"/>
<feBlend mode="normal" in="SourceGraphic" in2="effect2_dropShadow_29_351" result="shape"/>
</filter>
</defs>
</svg>
