<svg width="123" height="119" viewBox="0 0 123 119" fill="none" xmlns="http://www.w3.org/2000/svg">
<path d="M22.3786 59.1451C21.9644 58.965 21.7573 58.6679 21.7573 58.2537C21.7573 58.0556 21.8114 57.8845 21.9194 57.7404C22.0275 57.5783 22.1805 57.4523 22.3786 57.3622L36.6416 50.717C36.9117 51.1492 37.0468 51.5724 37.0468 51.9866C37.0468 52.3108 36.9657 52.5989 36.8037 52.851C36.6416 53.1031 36.3985 53.2922 36.0743 53.4183L25.2691 58.2537L36.0473 63.089C36.3534 63.2151 36.5876 63.4132 36.7496 63.6833C36.9117 63.9534 36.9928 64.2596 36.9928 64.6017C36.9928 65.052 36.8757 65.4572 36.6416 65.8173L22.3786 59.1451ZM47.1244 48.4209C47.1244 48.0787 47.2414 47.7996 47.4756 47.5835C47.7277 47.3493 48.0428 47.2323 48.421 47.2323H56.3089C57.4974 47.2323 58.5509 47.4844 59.4694 47.9887C60.3878 48.4749 61.0992 49.1682 61.6034 50.0687C62.1077 50.9511 62.3598 51.9686 62.3598 53.1212C62.3598 54.3097 62.1077 55.3542 61.6034 56.2547C61.1172 57.1551 60.4149 57.8485 59.4964 58.3347C58.578 58.8209 57.5154 59.064 56.3089 59.064H49.6636V64.2776C49.6636 64.9619 49.4475 65.4842 49.0153 65.8444C48.5831 66.2045 47.9528 66.3846 47.1244 66.3846V48.4209ZM56.3089 56.822C57.3894 56.822 58.2448 56.4978 58.8751 55.8495C59.5054 55.1832 59.8206 54.2737 59.8206 53.1212C59.8206 52.0046 59.4964 51.1222 58.8481 50.4739C58.2178 49.8075 57.3714 49.4744 56.3089 49.4744H49.6636V56.822H56.3089ZM66.7551 66.1415C66.395 66.1415 66.0888 66.0334 65.8367 65.8173C65.5846 65.5832 65.4585 65.2951 65.4585 64.9529V48.4209C65.4585 48.0787 65.5756 47.7996 65.8097 47.5835C66.0618 47.3493 66.3769 47.2323 66.7551 47.2323H73.0762C74.607 47.2323 75.9576 47.5204 77.1282 48.0967C78.2988 48.673 79.2082 49.4834 79.8565 50.5279C80.5228 51.5544 80.856 52.734 80.856 54.0666V59.2531C80.856 60.5858 80.5228 61.7744 79.8565 62.8189C79.2082 63.8634 78.2898 64.6828 77.1012 65.2771C75.9306 65.8534 74.5889 66.1415 73.0762 66.1415H66.7551ZM72.8061 63.9264C74.5349 63.9264 75.8856 63.5212 76.8581 62.7108C77.8305 61.8824 78.3168 60.7389 78.3168 59.2802V54.0396C78.3168 52.5989 77.8305 51.4734 76.8581 50.663C75.8856 49.8526 74.5349 49.4474 72.8061 49.4474H67.9977V63.9264H72.8061ZM91.0672 65.8173C90.8331 65.4572 90.716 65.052 90.716 64.6017C90.716 64.2596 90.7971 63.9534 90.9591 63.6833C91.1212 63.4132 91.3553 63.2151 91.6615 63.089L102.44 58.2537L91.6345 53.4183C91.3103 53.2922 91.0672 53.1031 90.9051 52.851C90.743 52.5989 90.662 52.3108 90.662 51.9866C90.662 51.5724 90.7971 51.1492 91.0672 50.717L105.33 57.3622C105.528 57.4523 105.681 57.5783 105.789 57.7404C105.897 57.8845 105.951 58.0556 105.951 58.2537C105.951 58.6679 105.744 58.965 105.33 59.1451L91.0672 65.8173Z" fill="black"/>
<g filter="url(#filter0_dd_57_733)">
<path d="M64.3712 8L107.73 19.3281L117.56 61.7724L107.73 93.6057L64.3712 110.669L15.7804 93.6057L5 61.7724L15.7804 19.3281L64.3712 8Z" stroke="black" stroke-width="2.47856" shape-rendering="crispEdges"/>
</g>
<defs>
<filter id="filter0_dd_57_733" x="0.167818" y="0.350101" width="122.215" height="118.015" filterUnits="userSpaceOnUse" color-interpolation-filters="sRGB">
<feFlood flood-opacity="0" result="BackgroundImageFix"/>
<feColorMatrix in="SourceAlpha" type="matrix" values="0 0 0 0 0 0 0 0 0 0 0 0 0 0 0 0 0 0 127 0" result="hardAlpha"/>
<feOffset dy="2.83264"/>
<feGaussianBlur stdDeviation="1.7704"/>
<feComposite in2="hardAlpha" operator="out"/>
<feColorMatrix type="matrix" values="0 0 0 0 0 0 0 0 0 0 0 0 0 0 0 0 0 0 0.46 0"/>
<feBlend mode="normal" in2="BackgroundImageFix" result="effect1_dropShadow_57_733"/>
<feColorMatrix in="SourceAlpha" type="matrix" values="0 0 0 0 0 0 0 0 0 0 0 0 0 0 0 0 0 0 127 0" result="hardAlpha"/>
<feOffset dy="-2.83264"/>
<feGaussianBlur stdDeviation="1.7704"/>
<feComposite in2="hardAlpha" operator="out"/>
<feColorMatrix type="matrix" values="0 0 0 0 0 0 0 0 0 0 0 0 0 0 0 0 0 0 0.25 0"/>
<feBlend mode="normal" in2="effect1_dropShadow_57_733" result="effect2_dropShadow_57_733"/>
<feBlend mode="normal" in="SourceGraphic" in2="effect2_dropShadow_57_733" result="shape"/>
</filter>
</defs>
</svg>
